<?xml version="1.0" encoding="UTF-8"?>
<svg width="700pt" height="700pt" version="1.1" viewBox="0 0 700 700" xmlns="http://www.w3.org/2000/svg" xmlns:xlink="http://www.w3.org/1999/xlink">
 <defs>
  <symbol id="t" overflow="visible">
   <path d="m3.6562-0.21875c-0.1875 0.09375-0.38672 0.16797-0.59375 0.21875-0.19922 0.050781-0.40625 0.078125-0.625 0.078125-0.66797 0-1.1992-0.17969-1.5938-0.54688-0.38672-0.375-0.57812-0.87891-0.57812-1.5156 0-0.64453 0.19141-1.1484 0.57812-1.5156 0.39453-0.375 0.92578-0.5625 1.5938-0.5625 0.21875 0 0.42578 0.027344 0.625 0.078125 0.20703 0.054687 0.40625 0.125 0.59375 0.21875v0.82812c-0.1875-0.125-0.375-0.21875-0.5625-0.28125-0.17969-0.0625-0.37109-0.09375-0.57812-0.09375-0.36719 0-0.65625 0.12109-0.875 0.35938-0.21094 0.23047-0.3125 0.55469-0.3125 0.96875 0 0.40625 0.10156 0.73047 0.3125 0.96875 0.21875 0.23047 0.50781 0.34375 0.875 0.34375 0.20703 0 0.39844-0.023437 0.57812-0.078125 0.1875-0.0625 0.375-0.16016 0.5625-0.29688z"/>
  </symbol>
  <symbol id="d" overflow="visible">
   <path d="m2.6875-2.1719c-0.085938-0.039063-0.16797-0.070313-0.25-0.09375-0.085938-0.019531-0.16797-0.03125-0.25-0.03125-0.25 0-0.44531 0.085937-0.57812 0.25-0.125 0.15625-0.1875 0.38281-0.1875 0.67188v1.375h-0.96875v-2.9844h0.96875v0.48438c0.11328-0.19531 0.25-0.33594 0.40625-0.42188 0.16406-0.09375 0.35938-0.14062 0.57812-0.14062h0.10938c0.039063 0 0.09375 0.007812 0.15625 0.015625z"/>
  </symbol>
  <symbol id="a" overflow="visible">
   <path d="m3.4375-1.5v0.26562h-2.2344c0.03125 0.23047 0.11328 0.40234 0.25 0.51562 0.13281 0.10547 0.32812 0.15625 0.57812 0.15625 0.20703 0 0.41406-0.023438 0.625-0.078125 0.20703-0.0625 0.42188-0.15625 0.64062-0.28125v0.73438c-0.21875 0.09375-0.44531 0.16406-0.67188 0.20312-0.23047 0.039062-0.45312 0.0625-0.67188 0.0625-0.54297 0-0.96484-0.13281-1.2656-0.40625-0.30469-0.28125-0.45312-0.67188-0.45312-1.1719 0-0.47656 0.14453-0.85938 0.4375-1.1406 0.30078-0.28125 0.70703-0.42188 1.2188-0.42188 0.46875 0 0.84375 0.14062 1.125 0.42188s0.42188 0.66406 0.42188 1.1406zm-0.96875-0.32812c0-0.17578-0.058594-0.31641-0.17188-0.42188-0.10547-0.11328-0.24219-0.17188-0.40625-0.17188-0.1875 0-0.33984 0.054687-0.45312 0.15625-0.11719 0.10547-0.1875 0.25-0.21875 0.4375z"/>
  </symbol>
  <symbol id="l" overflow="visible">
   <path d="m1.7969-1.3438c-0.19922 0-0.35156 0.039062-0.45312 0.10938-0.09375 0.0625-0.14062 0.16406-0.14062 0.29688 0 0.11719 0.035156 0.21094 0.10938 0.28125 0.082031 0.0625 0.19531 0.09375 0.34375 0.09375 0.17578 0 0.32812-0.0625 0.45312-0.1875s0.1875-0.28516 0.1875-0.48438v-0.10938zm1.4688-0.35938v1.7031h-0.96875v-0.4375c-0.125 0.17969-0.27344 0.30859-0.4375 0.39062-0.15625 0.082031-0.35156 0.125-0.57812 0.125-0.3125 0-0.57031-0.085938-0.76562-0.26562-0.1875-0.1875-0.28125-0.42188-0.28125-0.70312 0-0.35156 0.11719-0.61328 0.35938-0.78125 0.23828-0.16406 0.61719-0.25 1.1406-0.25h0.5625v-0.0625c0-0.15625-0.0625-0.26562-0.1875-0.32812-0.11719-0.070312-0.29688-0.10938-0.54688-0.10938-0.21094 0-0.40234 0.023437-0.57812 0.0625-0.17969 0.042969-0.33984 0.10156-0.48438 0.17188v-0.71875c0.19531-0.050781 0.39844-0.085938 0.60938-0.10938 0.20703-0.03125 0.41406-0.046875 0.625-0.046875 0.53906 0 0.92969 0.10938 1.1719 0.32812 0.23828 0.21094 0.35938 0.55469 0.35938 1.0312z"/>
  </symbol>
  <symbol id="c" overflow="visible">
   <path d="m1.5-3.8438v0.85938h0.98438v0.67188h-0.98438v1.2812c0 0.13672 0.023438 0.23047 0.078125 0.28125 0.0625 0.042969 0.17578 0.0625 0.34375 0.0625h0.48438v0.6875h-0.8125c-0.38672 0-0.65625-0.078125-0.8125-0.23438s-0.23438-0.42188-0.23438-0.79688v-1.2812h-0.46875v-0.67188h0.46875v-0.85938z"/>
  </symbol>
  <symbol id="f" overflow="visible">
   <path d="m2.5-2.5469v-1.6094h0.95312v4.1562h-0.95312v-0.4375c-0.13672 0.17969-0.28125 0.30859-0.4375 0.39062-0.15625 0.082031-0.33984 0.125-0.54688 0.125-0.375 0-0.68359-0.14453-0.92188-0.4375-0.23047-0.28906-0.34375-0.67188-0.34375-1.1406 0-0.45703 0.11328-0.83203 0.34375-1.125 0.23828-0.28906 0.54688-0.4375 0.92188-0.4375 0.19531 0 0.375 0.042969 0.53125 0.125 0.16406 0.085938 0.31641 0.21484 0.45312 0.39062zm-0.64062 1.9375c0.20703 0 0.36328-0.070313 0.46875-0.21875 0.11328-0.15625 0.17188-0.37891 0.17188-0.67188 0-0.28125-0.058594-0.49219-0.17188-0.64062-0.10547-0.15625-0.26172-0.23438-0.46875-0.23438-0.19922 0-0.35547 0.078125-0.46875 0.23438-0.10547 0.14844-0.15625 0.35938-0.15625 0.64062 0 0.29297 0.050781 0.51562 0.15625 0.67188 0.11328 0.14844 0.26953 0.21875 0.46875 0.21875z"/>
  </symbol>
  <symbol id="k" overflow="visible">
   <path d="m2.0469-0.60938c0.20703 0 0.36328-0.070313 0.46875-0.21875 0.11328-0.15625 0.17188-0.37891 0.17188-0.67188 0-0.28125-0.058594-0.49219-0.17188-0.64062-0.10547-0.15625-0.26172-0.23438-0.46875-0.23438-0.19922 0-0.35547 0.078125-0.46875 0.23438-0.10547 0.14844-0.15625 0.35938-0.15625 0.64062 0 0.29297 0.050781 0.51562 0.15625 0.67188 0.11328 0.14844 0.26953 0.21875 0.46875 0.21875zm-0.625-1.9375c0.125-0.17578 0.26562-0.30469 0.42188-0.39062 0.16406-0.082031 0.35156-0.125 0.5625-0.125 0.36328 0 0.66406 0.14844 0.90625 0.4375 0.23828 0.29297 0.35938 0.66797 0.35938 1.125 0 0.46875-0.12109 0.85156-0.35938 1.1406-0.24219 0.29297-0.54297 0.4375-0.90625 0.4375-0.21094 0-0.39844-0.042969-0.5625-0.125-0.15625-0.082031-0.29688-0.21094-0.42188-0.39062v0.4375h-0.96875v-4.1562h0.96875z"/>
  </symbol>
  <symbol id="j" overflow="visible">
   <path d="m0.0625-2.9844h0.95312l0.8125 2.0156 0.6875-2.0156h0.95312l-1.2656 3.2656c-0.125 0.33203-0.27344 0.56641-0.4375 0.70312-0.16797 0.13281-0.39062 0.20312-0.67188 0.20312h-0.54688v-0.64062h0.29688c0.16406 0 0.28516-0.027344 0.35938-0.078125 0.070313-0.054688 0.12891-0.14062 0.17188-0.26562l0.03125-0.09375z"/>
  </symbol>
  <symbol id="e" overflow="visible">
   <path d="m0.45312-2.9844h0.96875v2.9844h-0.96875zm0-1.1719h0.96875v0.78125h-0.96875z"/>
  </symbol>
  <symbol id="i" overflow="visible">
   <path d="m2.875-2.8906v0.76562c-0.125-0.082031-0.25781-0.14453-0.39062-0.1875-0.13672-0.039062-0.27344-0.0625-0.40625-0.0625-0.27344 0-0.48047 0.078125-0.625 0.23438-0.14844 0.15625-0.21875 0.37109-0.21875 0.64062 0 0.28125 0.070313 0.5 0.21875 0.65625 0.14453 0.15625 0.35156 0.23438 0.625 0.23438 0.14453 0 0.28516-0.019531 0.42188-0.0625 0.13281-0.039063 0.25781-0.10938 0.375-0.20312v0.78125c-0.14844 0.0625-0.29688 0.10156-0.45312 0.125-0.15625 0.03125-0.3125 0.046875-0.46875 0.046875-0.54297 0-0.96484-0.13281-1.2656-0.40625-0.30469-0.28125-0.45312-0.67188-0.45312-1.1719 0-0.48828 0.14844-0.86719 0.45312-1.1406 0.30078-0.28125 0.72266-0.42188 1.2656-0.42188 0.15625 0 0.3125 0.015625 0.46875 0.046875 0.15625 0.023437 0.30469 0.0625 0.45312 0.125z"/>
  </symbol>
  <symbol id="b" overflow="visible">
   <path d="m1.875-2.375c-0.21094 0-0.37109 0.078125-0.48438 0.23438-0.10547 0.14844-0.15625 0.35938-0.15625 0.64062 0 0.29297 0.050781 0.51562 0.15625 0.67188 0.11328 0.14844 0.27344 0.21875 0.48438 0.21875 0.20703 0 0.36719-0.070313 0.48438-0.21875 0.11328-0.15625 0.17188-0.37891 0.17188-0.67188 0-0.28125-0.058594-0.49219-0.17188-0.64062-0.11719-0.15625-0.27734-0.23438-0.48438-0.23438zm0-0.6875c0.51953 0 0.92188 0.14062 1.2031 0.42188 0.28906 0.27344 0.4375 0.65234 0.4375 1.1406 0 0.5-0.14844 0.89062-0.4375 1.1719-0.28125 0.27344-0.68359 0.40625-1.2031 0.40625-0.51172 0-0.91406-0.13281-1.2031-0.40625-0.29297-0.28125-0.4375-0.67188-0.4375-1.1719 0-0.48828 0.14453-0.86719 0.4375-1.1406 0.28906-0.28125 0.69141-0.42188 1.2031-0.42188z"/>
  </symbol>
  <symbol id="h" overflow="visible">
   <path d="m3.4688-1.8281v1.8281h-0.96875v-1.3906c0-0.25781-0.007812-0.4375-0.015625-0.53125-0.011719-0.10156-0.03125-0.17578-0.0625-0.21875-0.03125-0.0625-0.085937-0.10938-0.15625-0.14062-0.0625-0.039062-0.13281-0.0625-0.20312-0.0625-0.21094 0-0.37109 0.078125-0.48438 0.23438-0.10547 0.15625-0.15625 0.37109-0.15625 0.64062v1.4688h-0.96875v-2.9844h0.96875v0.4375c0.13281-0.17578 0.28516-0.30469 0.45312-0.39062 0.16406-0.082031 0.34375-0.125 0.53125-0.125 0.34375 0 0.60156 0.10938 0.78125 0.32812 0.1875 0.21094 0.28125 0.51172 0.28125 0.90625z"/>
  </symbol>
  <symbol id="g" overflow="visible">
   <path d="m2.4219-4.1562v0.625h-0.51562c-0.13672 0-0.23438 0.027344-0.29688 0.078125-0.054687 0.054687-0.078125 0.13672-0.078125 0.25v0.21875h0.82812v0.67188h-0.82812v2.3125h-0.95312v-2.3125h-0.46875v-0.67188h0.46875v-0.21875c0-0.32031 0.085937-0.5625 0.26562-0.71875 0.1875-0.15625 0.47266-0.23438 0.85938-0.23438z"/>
  </symbol>
  <symbol id="s" overflow="visible">
   <path d="m0.45312-4.1562h0.96875v4.1562h-0.96875z"/>
  </symbol>
  <symbol id="r" overflow="visible">
   <path d="m3.2344-2.5c0.11328-0.17578 0.25391-0.3125 0.42188-0.40625 0.16406-0.10156 0.35156-0.15625 0.5625-0.15625 0.33203 0 0.58594 0.10938 0.76562 0.32812 0.1875 0.21094 0.28125 0.51172 0.28125 0.90625v1.8281h-0.96875v-1.5625c0.007813-0.019531 0.015625-0.039062 0.015625-0.0625v-0.10938c0-0.21875-0.03125-0.375-0.09375-0.46875s-0.16406-0.14062-0.29688-0.14062c-0.1875 0-0.33594 0.078125-0.4375 0.23438-0.09375 0.14844-0.14062 0.35938-0.14062 0.64062v1.4688h-0.96875v-1.5625c0-0.33203-0.03125-0.54688-0.09375-0.64062-0.054688-0.09375-0.15234-0.14062-0.29688-0.14062-0.17969 0-0.32031 0.078125-0.42188 0.23438-0.09375 0.14844-0.14062 0.35938-0.14062 0.64062v1.4688h-0.96875v-2.9844h0.96875v0.4375c0.11328-0.17578 0.24219-0.30469 0.39062-0.39062 0.15625-0.082031 0.32812-0.125 0.51562-0.125 0.20703 0 0.39062 0.054688 0.54688 0.15625 0.15625 0.09375 0.27344 0.23047 0.35938 0.40625z"/>
  </symbol>
  <symbol id="q" overflow="visible">
   <path d="m3.4688-1.8281v1.8281h-0.96875v-1.3906c0-0.25781-0.007812-0.4375-0.015625-0.53125-0.011719-0.10156-0.03125-0.17578-0.0625-0.21875-0.03125-0.0625-0.085937-0.10938-0.15625-0.14062-0.0625-0.039062-0.13281-0.0625-0.20312-0.0625-0.21094 0-0.37109 0.078125-0.48438 0.23438-0.10547 0.15625-0.15625 0.37109-0.15625 0.64062v1.4688h-0.96875v-4.1562h0.96875v1.6094c0.13281-0.17578 0.28516-0.30469 0.45312-0.39062 0.16406-0.082031 0.34375-0.125 0.53125-0.125 0.34375 0 0.60156 0.10938 0.78125 0.32812 0.1875 0.21094 0.28125 0.51172 0.28125 0.90625z"/>
  </symbol>
  <symbol id="p" overflow="visible">
   <path d="m0.5-3.9844h1.1562l1.4375 2.7344v-2.7344h0.98438v3.9844h-1.1562l-1.4375-2.7344v2.7344h-0.98438z"/>
  </symbol>
  <symbol id="o" overflow="visible">
   <path d="m0.42188-1.1719v-1.8125h0.96875v0.29688 0.60938 0.48438c0 0.24219 0.003906 0.41797 0.015625 0.53125 0.007812 0.10547 0.03125 0.17969 0.0625 0.21875 0.039062 0.0625 0.09375 0.11719 0.15625 0.15625 0.0625 0.03125 0.13281 0.046875 0.21875 0.046875 0.19531 0 0.35156-0.078125 0.46875-0.23438 0.11328-0.15625 0.17188-0.36719 0.17188-0.64062v-1.4688h0.95312v2.9844h-0.95312v-0.4375c-0.14844 0.17969-0.30469 0.30859-0.46875 0.39062-0.15625 0.082031-0.33594 0.125-0.53125 0.125-0.34375 0-0.60938-0.10156-0.79688-0.3125-0.17969-0.21875-0.26562-0.53125-0.26562-0.9375z"/>
  </symbol>
  <symbol id="n" overflow="visible">
   <path d="m0.5-3.9844h1.7031c0.50781 0 0.89844 0.11719 1.1719 0.34375 0.26953 0.21875 0.40625 0.53906 0.40625 0.95312 0 0.41797-0.13672 0.74219-0.40625 0.96875-0.27344 0.21875-0.66406 0.32812-1.1719 0.32812h-0.67188v1.3906h-1.0312zm1.0312 0.75v1.1094h0.5625c0.19531 0 0.34766-0.046875 0.45312-0.14062 0.11328-0.10156 0.17188-0.24219 0.17188-0.42188 0-0.17578-0.058594-0.3125-0.17188-0.40625-0.10547-0.09375-0.25781-0.14062-0.45312-0.14062z"/>
  </symbol>
  <symbol id="m" overflow="visible">
   <path d="m0.45312-2.9844h0.96875v2.9375c0 0.39453-0.10156 0.69531-0.29688 0.90625-0.1875 0.21875-0.46484 0.32812-0.82812 0.32812h-0.48438v-0.64062h0.17188c0.17578 0 0.29688-0.042969 0.35938-0.125 0.070312-0.074219 0.10938-0.23047 0.10938-0.46875zm0-1.1719h0.96875v0.78125h-0.96875z"/>
  </symbol>
 </defs>
 <g>
  <path d="m196.66 297.5h0.875c4.4844 0 8.3125-3.3906 8.75-7.875 0.32812-2.9531 0.54688-5.9062 0.875-8.75 0.4375-4.8125-3.0625-9.0781-7.875-9.5156s-9.0781 3.0625-9.5156 7.875c-0.21875 2.8438-0.54688 5.7969-0.875 8.75-0.65625 4.7031 2.9531 8.9688 7.7656 9.5156z"/>
  <path d="m420.88 411.25c3.9375 0 7.5469-2.7344 8.5312-6.7812 1.0938-4.7031-1.8594-9.4062-6.5625-10.5-48.344-11.375-97.344-11.375-145.58 0-4.7031 1.0938-7.6562 5.7969-6.5625 10.5s5.7969 7.6562 10.5 6.5625c45.719-10.719 91.984-10.719 137.59 0 0.65625 0.10938 1.4219 0.21875 2.0781 0.21875z"/>
  <path d="m551.25 542.5h-8.75c-4.8125 0-8.75 3.9375-8.75 8.75s3.9375 8.75 8.75 8.75h8.75c4.8125 0 8.75-3.9375 8.75-8.75s-3.9375-8.75-8.75-8.75z"/>
  <path d="m516.25 542.5h-17.5v-1.5312c0-34.125-14.547-66.719-39.594-89.469 19.797-12.469 30.625-37.625 26.031-62.344-0.875-4.7031-1.6406-9.2969-2.5156-14 0.21875-0.98438 0.21875-1.9688 0-3.0625-14.219-82.797-19.141-154.22-16.844-246.53 0.10938-2.5156 1.6406-14.328 2.8438-24.281 3.5 0.875 6.7812 2.7344 9.5156 5.4688 4.4844 4.5938 7 11.047 7 17.938-0.54688 50.203 3.7188 114.84 13.781 209.67 0.76562 6.8906-1.2031 13.781-5.3594 18.812-3.0625 3.7188-2.5156 9.2969 1.3125 12.359 3.7188 3.0625 9.2969 2.5156 12.359-1.3125 7-8.75 10.391-20.234 9.1875-31.719-10.062-94.172-14.219-158.16-13.672-207.59 0.10938-11.484-4.2656-22.531-12.031-30.406-5.6875-5.6875-12.688-9.4062-20.234-10.719 0.65625-4.9219 0.98438-8.3125 0.98438-10.062 0.875-28.984-16.625-54.578-42.656-62.234-52.281-15.312-105.44-15.312-157.72 0-26.031 7.6562-43.531 33.141-42.656 62.234 0.10938 1.75 0.4375 5.1406 0.98438 10.172-7.3281 1.4219-14.219 5.0312-19.688 10.609-7.7656 7.875-12.141 18.922-12.031 30.406 0.4375 34.016-1.5312 75.906-6.0156 128.08-0.4375 4.8125 3.1719 9.0781 7.9844 9.4062 4.8125 0.4375 9.0781-3.1719 9.4062-7.9844 4.4844-52.719 6.4531-95.156 6.0156-129.83-0.10938-6.7812 2.5156-13.344 7-17.938 2.7344-2.7344 6.0156-4.5938 9.5156-5.4688 0.4375 3.3906 0.875 7.1094 1.3125 10.5v0.21875c0.10938 0.54688 0.10938 1.0938 0.21875 1.6406v0.32812c0.10938 0.54688 0.10938 0.98438 0.21875 1.4219v0.32812c0.10938 0.4375 0.10938 0.875 0.10938 1.3125v0.4375c0 0.4375 0.10938 0.76562 0.10938 1.0938 0 0.21875 0 0.32812 0.10938 0.54688 0 0.32812 0.10938 0.65625 0.10938 0.98438v0.4375c0 0.32812 0.10938 0.65625 0.10938 0.875v0.4375c0 0.21875 0 0.54688 0.10938 0.76562v0.4375c0 0.21875 0 0.4375 0.10938 0.65625v0.32812 0.54688 0.21875 0.65625c1.4219 54.688 0.21875 102.05-3.9375 148.86-2.4062 27.125-6.0156 55.781-11.047 86.844l-4.4844-1.8594c-9.1875-3.7188-14.766-14.109-13.672-25.047 0.65625-6.2344 1.3125-12.359 1.9688-18.484 0.54688-4.8125-2.9531-9.0781-7.7656-9.625s-9.0781 2.9531-9.625 7.7656c-0.65625 6.125-1.3125 12.25-1.9688 18.484-1.9688 18.703 7.9844 36.422 24.391 43.094l8.0938 3.2812c-0.54688 3.3906-1.2031 6.6719-1.8594 10.062-4.4844 24.719 6.2344 49.875 26.031 62.344-18.375 16.625-31.281 38.5-36.75 62.891-1.0938 4.7031 1.8594 9.4062 6.6719 10.5 0.65625 0.10938 1.3125 0.21875 1.9688 0.21875 4.0469 0 7.6562-2.7344 8.5312-6.7812 5.25-23.188 18.266-43.859 37.078-58.625 5.0312 1.9688 10.281 3.8281 15.641 5.4688h0.10938c1.75 0.54688 3.5 0.98438 5.1406 1.5312 0.10938 0 0.21875 0.10938 0.32812 0.10938 1.75 0.4375 3.5 0.98438 5.25 1.4219h0.10938c8.9688 2.1875 18.156 3.9375 27.672 5.25 0.32812 0 0.65625 0.10938 0.98438 0.10938 1.4219 0.21875 2.8438 0.32812 4.375 0.54688 0.65625 0.10938 1.4219 0.10938 2.1875 0.21875 1.3125 0.10938 2.5156 0.21875 3.8281 0.32812 0.875 0.10938 1.8594 0.10938 2.8438 0.21875 1.2031 0.10938 2.2969 0.21875 3.5 0.21875 1.0938 0.10938 2.2969 0.10938 3.3906 0.21875 0.98438 0.10938 2.0781 0.10938 3.0625 0.10938 1.4219 0.10938 2.7344 0.10938 4.1562 0.10938 0.875 0 1.6406 0.10938 2.5156 0.10938 2.1875 0 4.4844 0.10938 6.7812 0.10938 12.359 0 24.5-0.76562 36.094-2.1875 4.8125-0.65625 8.2031-5.0312 7.5469-9.7344-0.65625-4.8125-5.0312-8.2031-9.7344-7.5469-10.938 1.4219-22.312 2.0781-33.906 2.0781-1.75 0-3.6094 0-5.3594-0.10938h-1.75c-1.2031 0-2.4062-0.10938-3.6094-0.10938-1.4219-0.10938-2.8438-0.10938-4.2656-0.21875-0.54688 0-0.98438 0-1.5312-0.10938-29.531-1.75-52.609-8.0938-69.125-14.547-1.2031-0.4375-2.2969-0.875-3.5-1.4219-2.4062-0.98438-4.7031-2.0781-6.8906-3.0625-16.297-7.5469-25.484-27.125-21.984-46.484 8.8594-48.453 15.641-96.141 18.812-153.23 1.6406-29.422 2.1875-59.719 1.75-92.531v-0.54688c0-2.9531-0.10938-5.9062-0.10938-8.9688v-1.75c0-1.0938 0-2.2969-0.10938-3.3906 21.219-6.2344 42.547-10.391 63.875-12.578v38.281h-44.625c-4.8125 0-8.75 3.9375-8.75 8.75s3.9375 8.75 8.75 8.75h45.062v98.438c0 4.8125 3.9375 8.75 8.75 8.75s8.75-3.9375 8.75-8.75v-155.2c10.828-0.54688 21.656-0.54688 32.484 0v155.53c0 3.1719 1.75 6.125 4.5938 7.6562 9.5156 5.1406 23.406 16.953 35.438 43.422 0.54688 1.3125 0.10938 2.4062-0.21875 2.9531s-1.0938 1.4219-2.625 1.4219h-28.438c-4.8125 0-8.75 3.9375-8.75 8.75v4.2656c0 8.75-7.1094 16.078-15.969 16.188-4.2656 0.10938-8.3125-1.5312-11.375-4.5938-3.2812-3.1719-5.1406-7.6562-5.1406-12.141v-3.7188c0-4.8125-3.9375-8.75-8.75-8.75h-28.438c-1.4219 0-2.2969-0.875-2.625-1.4219s-0.76562-1.6406-0.21875-2.9531c3.7188-8.2031 10.062-20.125 19.031-30.078 3.2812-3.6094 2.9531-9.0781-0.65625-12.359s-9.0781-2.9531-12.359 0.65625c-8.3125 9.2969-15.75 20.891-21.875 34.453-2.9531 6.3438-2.4062 13.781 1.4219 19.688s10.281 9.4062 17.281 9.4062h20.125c1.0938 7.3281 4.5938 14.328 9.9531 19.578 6.3438 6.2344 14.656 9.625 23.406 9.625h0.65625c16.734-0.32812 30.625-13.125 32.812-29.312h20.016c7 0 13.562-3.5 17.281-9.4062 3.8281-5.9062 4.375-13.234 1.4219-19.688-7.2188-15.859-19.578-36.531-38.391-48.781v-93.297h44.844c4.8125 0 8.75-3.9375 8.75-8.75s-3.9375-8.75-8.75-8.75h-44.953v-38.281c7.7656 0.76562 15.641 1.8594 23.406 3.1719 4.8125 0.76562 9.2969-2.4062 10.062-7.1094 0.76562-4.8125-2.4062-9.2969-7.1094-10.062-52.719-9.0781-106.2-6.125-159.03 8.8594-0.54688-4.2656-1.2031-9.7344-2.0781-16.188l-0.76562-6.125c-1.0938-8.2031-2.0781-16.406-2.1875-18.594-0.65625-21 11.703-39.484 30.078-44.844 49.109-14.328 98.875-14.328 147.88 0 18.375 5.3594 30.734 23.844 30.078 44.844-0.10938 2.625-1.6406 14.875-2.9531 24.719-0.875 6.4531-1.5312 11.812-2.0781 16.078-3.1719-0.875-6.2344-1.75-9.2969-2.5156-4.7031-1.2031-9.4062 1.6406-10.609 6.3438s1.6406 9.4062 6.3438 10.609c4.1562 1.0938 8.2031 2.1875 12.359 3.3906-1.75 80.609 1.2031 156.52 20.234 260.42 3.5 19.359-5.6875 38.938-21.984 46.484-1.0938 0.54688-2.0781 1.3125-2.8438 2.1875-1.2031 0-2.4062 0.21875-3.5 0.65625-7 2.9531-14.438 5.5781-21.984 7.6562-4.5938 1.3125-7.3281 6.125-6.0156 10.828 1.3125 4.5938 6.125 7.3281 10.828 6.0156 6.6719-1.8594 13.125-4.0469 19.359-6.4531 24.828 19.578 39.484 49.656 39.484 81.375v1.5312h-332.72c-4.8125 0-8.75 3.9375-8.75 8.75s3.9375 8.75 8.75 8.75h367.5c4.8125 0 8.75-3.9375 8.75-8.75s-3.9375-8.75-8.75-8.75z"/>
  <use x="70" y="576.40625" xlink:href="#t"/>
  <use x="74.011719" y="576.40625" xlink:href="#d"/>
  <use x="76.710938" y="576.40625" xlink:href="#a"/>
  <use x="80.417969" y="576.40625" xlink:href="#l"/>
  <use x="84.109375" y="576.40625" xlink:href="#c"/>
  <use x="86.722656" y="576.40625" xlink:href="#a"/>
  <use x="90.433594" y="576.40625" xlink:href="#f"/>
  <use x="96.25" y="576.40625" xlink:href="#k"/>
  <use x="100.167969" y="576.40625" xlink:href="#j"/>
  <use x="105.636719" y="576.40625" xlink:href="#e"/>
  <use x="107.507812" y="576.40625" xlink:href="#i"/>
  <use x="110.75" y="576.40625" xlink:href="#b"/>
  <use x="114.507812" y="576.40625" xlink:href="#h"/>
  <use x="118.402344" y="576.40625" xlink:href="#g"/>
  <use x="120.78125" y="576.40625" xlink:href="#e"/>
  <use x="122.65625" y="576.40625" xlink:href="#a"/>
  <use x="126.363281" y="576.40625" xlink:href="#s"/>
  <use x="128.238281" y="576.40625" xlink:href="#f"/>
  <use x="70" y="581.875" xlink:href="#g"/>
  <use x="72.378906" y="581.875" xlink:href="#d"/>
  <use x="75.078125" y="581.875" xlink:href="#b"/>
  <use x="78.832031" y="581.875" xlink:href="#r"/>
  <use x="86.4375" y="581.875" xlink:href="#c"/>
  <use x="89.050781" y="581.875" xlink:href="#q"/>
  <use x="92.941406" y="581.875" xlink:href="#a"/>
  <use x="98.554688" y="581.875" xlink:href="#p"/>
  <use x="103.132812" y="581.875" xlink:href="#b"/>
  <use x="106.890625" y="581.875" xlink:href="#o"/>
  <use x="110.785156" y="581.875" xlink:href="#h"/>
  <use x="116.582031" y="581.875" xlink:href="#n"/>
  <use x="120.589844" y="581.875" xlink:href="#d"/>
  <use x="123.285156" y="581.875" xlink:href="#b"/>
  <use x="127.042969" y="581.875" xlink:href="#m"/>
  <use x="128.917969" y="581.875" xlink:href="#a"/>
  <use x="132.625" y="581.875" xlink:href="#i"/>
  <use x="135.867188" y="581.875" xlink:href="#c"/>
 </g>
</svg>
